<?xml version="1.0" standalone="no"?>
<!DOCTYPE svg PUBLIC "-//W3C//DTD SVG 20010904//EN"
 "http://www.w3.org/TR/2001/REC-SVG-20010904/DTD/svg10.dtd">
<svg version="1.0" xmlns="http://www.w3.org/2000/svg"
 width="720.000000pt" height="720.000000pt" viewBox="0 0 720.000000 720.000000"
 preserveAspectRatio="xMidYMid meet">
<metadata>
Created by potrace 1.11, written by Peter Selinger 2001-2013
</metadata>
<g transform="translate(0.000000,720.000000) scale(0.100000,-0.100000)"
fill="#000000" stroke="none">
<path d="M3425 6789 c-678 -32 -1360 -300 -1875 -738 -690 -585 -1092 -1390
-1138 -2279 -37 -695 143 -1360 521 -1932 534 -806 1393 -1325 2352 -1420 171
-17 512 -15 680 5 719 83 1379 401 1889 909 898 896 1180 2208 731 3406 -230
613 -664 1154 -1225 1527 -567 377 -1229 555 -1935 522z m-846 -894 c51 -43
54 -68 46 -373 -8 -306 -12 -323 -70 -348 -44 -18 -59 -18 -100 2 -62 29 -65
48 -65 369 0 236 3 291 15 315 32 62 121 79 174 35z m2180 0 c51 -43 54 -68
46 -378 -8 -315 -10 -324 -80 -347 -47 -15 -86 -5 -121 31 l-29 30 -3 297 c-2
215 0 304 9 325 27 65 123 88 178 42z m588 -2487 c-2 -845 -6 -1114 -16 -1148
-59 -215 -237 -385 -449 -429 -37 -8 -420 -11 -1285 -11 -1375 0 -1294 -4
-1438 71 -128 67 -230 190 -282 339 l-22 65 -3 1108 -3 1107 1751 0 1751 0 -4
-1102z"/>
<path d="M4460 3070 l0 -169 170 -3 170 -3 0 173 0 172 -170 0 -170 0 0 -170z"/>
</g>
</svg>
